<?xml version="1.0"?><!DOCTYPE svg PUBLIC "-//W3C//DTD SVG 1.1//EN" "http://www.w3.org/Graphics/SVG/1.1/DTD/svg11.dtd"><svg id="svg" xmlns="http://www.w3.org/2000/svg" xmlns:xlink="http://www.w3.org/1999/xlink" width="1536" height="654"><rect width="1536" height="654" style="fill:#120211;stroke-width:0;stroke:rgb(0,0,0)"/><path style="fill:#396E36;fill-rule:evenodd;stroke:#57A652;stroke-width:NaNpx;stroke-linecap:butt;stroke-linejoin:miter;opacity:1" d=" M 768,327 L 768,327  L 967.9903617918656,328.96346386742994  L 967.9903617918656,325.03653613257006 Z M 768,327 L 768,327  L 963.7645502698144,367.9419205418759  L 964.5306558661423,364.0904476223182 Z M 768,327 L 768,327  L 952.015616866919,405.3470021703912  L 953.5183870511448,401.71899401050325 Z M 768,327 L 768,327  L 933.1950665049746,439.7412524430033  L 935.3767506616819,436.47613136175926 Z M 768,327 L 768,327  L 908.0261623797047,469.80291961025364  L 910.8029196102536,467.0261623797047 Z M 768,327 L 768,327  L 877.4761313617594,494.37675066168185  L 880.7412524430033,492.19506650497465 Z M 768,327 L 768,327  L 842.7189940105033,512.5183870511448  L 846.3470021703912,511.015616866919 Z M 768,327 L 768,327  L 805.0904476223182,523.5306558661423  L 808.9419205418759,522.7645502698144 Z M 768,327 L 768,327  L 766.0365361325701,526.9903617918656  L 769.9634638674299,526.9903617918656 Z M 768,327 L 768,327  L 727.0580794581241,522.7645502698144  L 730.9095523776818,523.5306558661423 Z M 768,327 L 768,327  L 689.6529978296088,511.015616866919  L 693.2810059894967,512.5183870511448 Z M 768,327 L 768,327  L 655.2587475569967,492.19506650497465  L 658.5238686382406,494.37675066168185 Z M 768,327 L 768,327  L 625.1970803897464,467.0261623797047  L 627.9738376202953,469.80291961025364 Z M 768,327 L 768,327  L 600.6232493383181,436.47613136175926  L 602.8049334950254,439.7412524430034 Z M 768,327 L 768,327  L 582.4816129488552,401.71899401050325  L 583.984383133081,405.3470021703912 Z M 768,327 L 768,327  L 571.4693441338577,364.09044762231827  L 572.2354497301856,367.941920541876 Z M 768,327 L 768,327  L 568.0096382081344,325.03653613257006  L 568.0096382081344,328.9634638674299 Z M 768,327 L 768,327  L 572.2354497301856,286.05807945812404  L 571.4693441338577,289.9095523776818 Z M 768,327 L 768,327  L 583.984383133081,248.6529978296088  L 582.4816129488552,252.28100598949675 Z M 768,327 L 768,327  L 602.8049334950254,214.25874755699672  L 600.6232493383181,217.52386863824074 Z M 768,327 L 768,327  L 627.9738376202952,184.19708038974642  L 625.1970803897464,186.97383762029526 Z M 768,327 L 768,327  L 658.5238686382406,159.62324933831817  L 655.2587475569966,161.8049334950254 Z M 768,327 L 768,327  L 693.2810059894967,141.4816129488552  L 689.6529978296088,142.98438313308102 Z M 768,327 L 768,327  L 730.9095523776816,130.46934413385767  L 727.0580794581241,131.23544973018554 Z M 768,327 L 768,327  L 769.9634638674299,127.00963820813439  L 766.0365361325701,127.00963820813439 Z M 768,327 L 768,327  L 808.9419205418759,131.2354497301855  L 805.0904476223182,130.46934413385765 Z M 768,327 L 768,327  L 846.3470021703912,142.98438313308102  L 842.7189940105033,141.48161294885517 Z M 768,327 L 768,327  L 880.7412524430033,161.80493349502538  L 877.4761313617594,159.62324933831812 Z M 768,327 L 768,327  L 910.8029196102536,186.9738376202953  L 908.0261623797046,184.19708038974625 Z M 768,327 L 768,327  L 935.3767506616819,217.5238686382408  L 933.1950665049745,214.25874755699658 Z M 768,327 L 768,327  L 953.5183870511448,252.2810059894967  L 952.015616866919,248.65299782960875 Z M 768,327 L 768,327  L 964.5306558661423,289.90955237768185  L 963.7645502698144,286.05807945812404 Z" /></svg>